<!--
  ~ Copyright (C) 2010-2020 Talend Inc. - www.talend.com

  ~ This source code is available under agreement available at
  ~ https://github.com/Talend/api-portal-template/blob/main/LICENSE.md

  ~ You should have received a copy of the agreement
  ~ along with this program; if not, write to Talend SA
  ~ 9 rue Pages 92150 Suresnes, France
 -->

<svg id="Calque_1" data-name="Calque 1" xmlns="http://www.w3.org/2000/svg" viewBox="0 0 107.02 106.7"><defs><style>.cls-1{fill:#727677;}</style></defs><title>cube_gray</title><path class="cls-1" d="M21.19,51.47v52c0,2.76,2.24,3,5,3s5-.24,5-3v-52c0-2.76-2.24-6.92-5-6.92S21.19,48.71,21.19,51.47Z" transform="translate(-21.19 -22.88)"/><path class="cls-1" d="M117.52,51.47v52c0,2.76,2.24,3,5,3s5-.24,5-3l0.69-53.85c0-2.76-2.92-1.15-5.69-1.15S117.52,48.71,117.52,51.47Z" transform="translate(-21.19 -22.88)"/><path class="cls-1" d="M69.86,73.47v52c0,2.76,2.24,3,5,3s5-.24,5-3v-52c0-2.76-2.24-3-5-3S69.86,70.71,69.86,73.47Z" transform="translate(-21.19 -22.88)"/><path class="cls-1" d="M23,53.9L69.7,76.71c2.48,1.21,3.68-.7,4.89-3.18s2-4.6-.5-5.81L27.35,44.91c-2.48-1.21-3.68.7-4.89,3.18S20.48,52.68,23,53.9Z" transform="translate(-21.19 -22.88)"/><path class="cls-1" d="M125.42,55.23L78.69,78c-2.48,1.21-3.68-.7-4.89-3.18s-2-4.6.5-5.81L121,46.24c2.48-1.21,3.68.7,4.89,3.18S127.9,54,125.42,55.23Z" transform="translate(-21.19 -22.88)"/><path class="cls-1" d="M126.57,47L79.84,24.16c-2.48-1.21-3.68.7-4.89,3.18s-2.19,3.26.29,4.48L122.19,56c2.48,1.21,3.68-.7,4.89-3.18S129.05,48.18,126.57,47Z" transform="translate(-21.19 -22.88)"/><path class="cls-1" d="M24.51,45.06L75,23.13c2.48-1.21,7.79,2.27,9,4.75s-6.28,2.73-8.76,3.94L28.88,53.25c-2.48,1.21-4,.68-5.25-1.81S22,46.27,24.51,45.06Z" transform="translate(-21.19 -22.88)"/><path class="cls-1" d="M23.28,106.22l48.9,22.7c2.48,1.21,7,.81,8.2-1.67s-3.81-7.32-6.29-8.53L27.35,95.91c-2.48-1.21-3.68.7-4.89,3.18S20.8,105,23.28,106.22Z" transform="translate(-21.19 -22.88)"/><path class="cls-1" d="M125.42,106.23L78.69,129c-2.48,1.21-3.68-.7-4.89-3.18s-2-4.6.5-5.81L121,97.24c2.48-1.21,3.68.7,4.89,3.18S127.9,105,125.42,106.23Z" transform="translate(-21.19 -22.88)"/></svg>
